<svg width="136" height="36" viewBox="0 0 136 36" fill="none" xmlns="http://www.w3.org/2000/svg">
<path d="M18.2716 36C28.3627 36 36.5432 27.9411 36.5432 18C36.5432 8.05888 28.3627 0 18.2716 0C8.18047 0 0 8.05888 0 18C0 27.9411 8.18047 36 18.2716 36Z" fill="white"/>
<path d="M18.2719 30.0434C25.0354 30.0434 30.5184 24.6401 30.5184 17.9748C30.5184 11.3095 25.0354 5.90613 18.2719 5.90613C11.5083 5.90613 6.02539 11.3095 6.02539 17.9748C6.02539 24.6401 11.5083 30.0434 18.2719 30.0434Z" fill="#FDB515"/>
<path d="M26.3768 16.7888C27.113 15.0236 26.577 13.1341 25.1797 12.5686C23.7824 12.0031 22.0529 12.9757 21.3167 14.741C20.5806 16.5062 21.1166 18.3956 22.5139 18.9611C23.9112 19.5266 25.6407 18.554 26.3768 16.7888Z" fill="white"/>
<path d="M18.301 32.9356C20.2406 32.9356 21.8128 31.2587 21.8128 29.1902C21.8128 27.1216 20.2406 25.4447 18.301 25.4447C16.3615 25.4447 14.7892 27.1216 14.7892 29.1902C14.7892 31.2587 16.3615 32.9356 18.301 32.9356Z" fill="white"/>
<path d="M14.1483 18.959C15.5456 18.3935 16.0816 16.5041 15.3455 14.7388C14.6094 12.9736 12.8799 12.001 11.4826 12.5665C10.0853 13.132 9.54926 15.0214 10.2854 16.7867C11.0215 18.5519 12.751 19.5245 14.1483 18.959Z" fill="white"/>
<path d="M24.4971 29.5854C28.2863 27.5845 30.9745 23.818 31.4226 19.4L33.5433 21.8003C32.3613 26.5378 28.9647 30.422 24.5014 32.3262C24.5441 31.9479 24.5654 31.5233 24.5654 31.0399C24.5611 30.5523 24.5398 30.0646 24.4971 29.5854ZM14.0001 30.443C15.3357 30.8886 16.7609 31.1282 18.2501 31.1282C19.8033 31.1282 21.2883 30.8675 22.6751 30.3841C22.3849 31.5233 21.9326 32.5196 21.3566 33.3014C20.3538 33.499 19.3169 33.6041 18.2544 33.6041C17.2559 33.6041 16.283 33.5116 15.3357 33.3393C14.7511 32.5616 14.2946 31.5695 14.0001 30.443ZM12.0757 29.6233C8.22679 27.6223 5.50014 23.8054 5.06916 19.3285L2.99963 21.981C4.22855 26.6681 7.6294 30.4934 12.0757 32.364C12.033 31.9773 12.0117 31.5401 12.0117 31.0441C12.0117 30.5649 12.033 30.0899 12.0757 29.6233ZM28.8794 10.3075L30.3814 8.18889C29.3146 6.92359 28.0473 5.82224 26.6264 4.94368L24.0917 6.37712C25.9863 7.29351 27.6291 8.65129 28.8794 10.3075ZM10.0446 4.83438C8.55962 5.72976 7.23257 6.86054 6.12739 8.17628L7.82142 10.0469C9.05034 8.49996 10.6292 7.23466 12.4384 6.3603L10.0446 4.83438Z" fill="#141E35"/>
<path d="M9.53682 17.9872C9.53682 14.0778 12.1867 10.778 15.8137 9.73128C15.9758 9.28149 16.1806 8.89055 16.4111 8.57108C11.9221 9.42441 8.53406 13.317 8.53406 17.9872C8.53406 21.2955 10.2324 24.2128 12.8182 25.9363C12.9334 25.6084 13.0571 25.2932 13.1937 24.9863C10.9791 23.4268 9.53682 20.8709 9.53682 17.9872Z" fill="#141E35"/>
<path d="M11.2558 15.1122L11.994 15.3013C12.6597 13.788 13.8672 12.5606 15.3821 11.867C15.4034 11.5769 15.4333 11.2911 15.4802 11.0178C13.5728 11.7619 12.0452 13.2458 11.2558 15.1122Z" fill="#141E35"/>
<path d="M11.5216 19.0509H10.7621C11.0565 21.0518 12.1489 22.7963 13.7149 23.9565C13.8429 23.7379 13.9752 23.5278 14.116 23.326C12.7591 22.3003 11.8075 20.787 11.5216 19.0509Z" fill="#141E35"/>
<path d="M24.5612 15.3263L25.2952 15.1371C24.4162 13.0311 22.5899 11.4043 20.3369 10.7779C20.3923 11.0385 20.4393 11.3118 20.4734 11.5976C22.3168 12.2114 23.8017 13.5775 24.5612 15.3263Z" fill="#141E35"/>
<path d="M25.8715 17.0455L25.0779 16.2384L22.4707 16.6503L22.0696 17.8316L23.2686 18.6218L25.4704 17.8316L25.8715 17.0455Z" fill="#141E35"/>
<path d="M10.7787 17.0455L11.5681 16.2384L14.1795 16.6503L14.5764 17.8316L13.3773 18.6218L11.1798 17.8316L10.7787 17.0455Z" fill="#141E35"/>
<path d="M25.5007 20.2531C25.6244 19.8664 25.7226 19.4628 25.7823 19.0509H25.0228C24.9844 19.2821 24.9332 19.5049 24.8734 19.7277C25.0953 19.9042 25.3044 20.0766 25.5007 20.2531Z" fill="#141E35"/>
<path d="M23.0938 22.7502C22.8975 22.9394 22.6927 23.1243 22.475 23.2883C22.6159 23.4901 22.7524 23.7002 22.8804 23.9188C23.2175 23.6624 23.5333 23.3808 23.8234 23.0739C23.5845 22.9772 23.3413 22.8679 23.0938 22.7502Z" fill="#141E35"/>
<path d="M27.0064 17.9877C27.0064 19.1101 26.7845 20.1778 26.3919 21.1614C26.6864 21.5061 26.9082 21.8382 27.0533 22.1367C27.6678 20.8798 28.0134 19.4758 28.0134 17.9877C28.0134 13.0358 24.2072 8.96246 19.3171 8.44962C19.5604 8.74807 19.778 9.11799 19.9572 9.54256C23.9725 10.316 27.0064 13.8009 27.0064 17.9877Z" fill="#141E35"/>
<path d="M25.005 23.4647C24.5399 24.0195 24.0022 24.5198 23.4134 24.9443C23.5499 25.247 23.6779 25.5665 23.7889 25.8944C24.702 25.2764 25.5 24.503 26.1528 23.6244C25.8243 23.6286 25.436 23.574 25.005 23.4647Z" fill="#141E35"/>
<path d="M19.1077 16.8146C19.0992 16.8146 19.0949 16.8104 19.0906 16.8062L18.2713 8.38208H17.5075L16.8077 16.865H16.812C16.812 16.8818 16.8077 16.8987 16.8077 16.9155C16.812 17.0584 16.8248 17.1929 16.8504 17.3232C16.8632 17.4662 16.9059 17.6133 16.9742 17.7604C17.1192 18.1303 17.3539 18.4078 17.6313 18.5381C17.6953 18.5885 17.7636 18.6348 17.8318 18.681C17.8446 18.6894 17.8617 18.6978 17.8745 18.7062V18.7104L26.3745 23.3134L26.8183 22.7039L19.1077 16.8146Z" fill="#141E35"/>
<path d="M20.192 28.3451C19.5306 28.3451 18.9716 27.8996 18.8094 27.2984L21.9543 26.113L21.2033 24.2718L18.2718 25.4404L15.336 24.276L14.5893 26.113L17.7043 27.3237C17.5336 27.9122 16.9831 28.3451 16.3303 28.3451C16.2876 28.3451 16.2407 28.3409 16.198 28.3367L15.5622 29.2153C15.8011 29.2952 16.0572 29.3372 16.326 29.3372C17.1154 29.3372 17.8152 28.9673 18.259 28.3914C18.7028 28.9631 19.4026 29.3372 20.192 29.3372C20.4907 29.3372 20.7723 29.2826 21.0368 29.1859L20.4138 28.3283C20.3413 28.3409 20.2688 28.3451 20.192 28.3451Z" fill="#141E35"/>
<path d="M28.0562 10.7148L27.0364 11.8582C28.2824 13.5859 29.012 15.6961 29.012 17.9745C29.012 21.7073 27.0492 24.9904 24.0836 26.8736C24.2158 27.3696 24.3225 27.8867 24.4036 28.4206C28.0562 26.3313 30.514 22.4346 30.514 17.9745C30.5226 15.2505 29.6009 12.7368 28.0562 10.7148Z" fill="#141E35"/>
<path d="M7.53167 17.9753C7.53167 15.7011 8.26133 13.5951 9.50305 11.8674L8.48322 10.724C6.93854 12.7417 6.02539 15.2555 6.02539 17.9753C6.02539 22.4647 8.51309 26.3825 12.2084 28.4591C12.2894 27.9253 12.3919 27.4082 12.5241 26.9164C9.52012 25.0374 7.53167 21.7375 7.53167 17.9753Z" fill="#141E35"/>
<path d="M18.2717 5.90613C16.3899 5.90613 14.6063 6.32649 13.0146 7.07054L13.7657 8.36526C15.1354 7.73892 16.663 7.39001 18.2717 7.39001C19.8761 7.39001 21.3994 7.73892 22.7692 8.36105L23.5202 7.06633C21.9286 6.32649 20.1492 5.90613 18.2717 5.90613Z" fill="#141E35"/>
<path d="M48.2009 25.5918H45.086V13.1574H41.0024V10.6478H52.2589V13.1574H48.2009V25.5918Z" fill="#141E35"/>
<path d="M56.6022 12.2831C56.6022 13.1574 55.9195 13.83 55.0106 13.83C54.0761 13.83 53.3976 13.1574 53.3976 12.2621C53.3976 11.3415 54.0804 10.6731 55.0106 10.6731C55.9408 10.6731 56.6022 11.3415 56.6022 12.2831ZM56.4401 25.5918H53.5513V15.2214H56.4401V25.5918Z" fill="#141E35"/>
<path d="M61.3177 15.1291V16.428C61.9791 15.2846 62.8624 14.7718 64.2065 14.7718C65.572 14.7718 66.5705 15.3771 67.074 16.4953C67.778 15.3056 68.7552 14.7718 70.2572 14.7718C71.324 14.7718 72.2115 15.1081 72.8046 15.7344C73.4404 16.428 73.6453 17.1468 73.6453 18.7148V25.5037H70.7565V19.2528C70.7565 17.8404 70.2316 17.1678 69.1435 17.1678C68.0725 17.1678 67.4623 17.9287 67.4623 19.2528V25.5037H64.5735V19.3411C64.5735 17.9077 64.0273 17.1678 62.9819 17.1678C61.8895 17.1678 61.322 17.9077 61.322 19.3411V25.5037H58.4332V15.1291H61.3177Z" fill="#141E35"/>
<path d="M106.613 24.4858C105.405 25.5619 104.155 26.0327 102.564 26.0327C99.3547 26.0327 96.9907 23.7039 96.9907 20.5428C96.9907 17.2723 99.312 14.9393 102.585 14.9393C104.155 14.9393 105.452 15.4774 106.792 16.6628L104.859 18.3863C104.223 17.7599 103.541 17.4657 102.7 17.4657C101.108 17.4657 99.9265 18.7436 99.9265 20.4461C99.9265 22.2158 101.134 23.4937 102.815 23.4937C103.566 23.4937 104.112 23.2709 104.863 22.6194L106.613 24.4858Z" fill="#141E35"/>
<path d="M115.595 15.301H118.483V25.6756H115.595V24.2422C114.617 25.4738 113.478 26.0329 111.933 26.0329C108.976 26.0329 106.86 23.7713 106.86 20.6102C106.86 17.3398 109.087 14.9437 112.16 14.9437C113.593 14.9437 114.57 15.4355 115.595 16.6252V15.301ZM109.954 20.564C109.954 22.3799 111.161 23.7461 112.727 23.7461C114.34 23.7461 115.637 22.2664 115.637 20.4757C115.637 18.6387 114.455 17.3398 112.748 17.3398C111.114 17.3398 109.954 18.6597 109.954 20.564Z" fill="#141E35"/>
<path d="M120.409 25.7725V10.8286H123.297V25.7725H120.409Z" fill="#141E35"/>
<path d="M86.0161 21.2826H77.3368C77.4606 22.035 77.7977 22.6362 78.3396 23.0818C78.8858 23.5273 79.5771 23.7501 80.4219 23.7501C81.4332 23.7501 82.2994 23.4012 83.0248 22.7076L85.3035 23.7627C84.7359 24.5572 84.0575 25.1415 83.2638 25.5241C82.4701 25.9024 81.5314 26.0958 80.4433 26.0958C78.7535 26.0958 77.3795 25.5703 76.317 24.5194C75.2545 23.4685 74.7254 22.1528 74.7254 20.5764C74.7254 18.958 75.2545 17.6128 76.3128 16.5451C77.371 15.4774 78.698 14.9393 80.2982 14.9393C81.9922 14.9393 83.3747 15.4732 84.4372 16.5451C85.4997 17.6128 86.0289 19.0252 86.0289 20.7824L86.0161 21.2826ZM83.315 19.185C83.1358 18.5923 82.7859 18.1131 82.261 17.7431C81.7362 17.3732 81.126 17.1882 80.4305 17.1882C79.6752 17.1882 79.0138 17.3984 78.4463 17.8104C78.0879 18.071 77.7593 18.5292 77.4563 19.185H83.315Z" fill="#141E35"/>
<path d="M135.987 21.3797H127.308C127.431 22.1322 127.768 22.7333 128.31 23.1789C128.856 23.6245 129.548 23.8473 130.393 23.8473C131.404 23.8473 132.27 23.4984 132.996 22.8048L135.274 23.8599C134.707 24.6544 134.028 25.2387 133.234 25.6212C132.441 25.9995 131.502 26.1929 130.414 26.1929C128.724 26.1929 127.35 25.6675 126.288 24.6165C125.225 23.5656 124.696 22.2499 124.696 20.6735C124.696 19.0551 125.225 17.71 126.283 16.6422C127.342 15.5745 128.669 15.0364 130.269 15.0364C131.963 15.0364 133.345 15.5703 134.408 16.6422C135.47 17.71 136 19.1224 136 20.8795L135.987 21.3797ZM133.286 19.2821C133.106 18.6894 132.757 18.2102 132.232 17.8403C131.707 17.4703 131.097 17.2854 130.401 17.2854C129.646 17.2854 128.984 17.4956 128.417 17.9075C128.059 18.1682 127.73 18.6264 127.427 19.2821H133.286Z" fill="#141E35"/>
<path d="M87.9572 22.4518C88.0767 22.5443 88.8576 23.1076 90.287 23.57C90.9015 23.7675 91.8104 23.8054 92.5016 23.6751C92.8387 23.612 93.2014 23.5237 93.4745 23.3093C93.594 23.2169 93.6964 23.0907 93.7391 22.9436C93.8074 22.704 93.7049 22.4392 93.53 22.2584C93.2953 22.0146 92.9497 21.8927 92.6254 21.8044C91.9042 21.6069 91.2258 21.4597 90.6071 21.3378C89.9073 21.1991 89.2501 21.0646 88.657 20.7577C87.8932 20.3584 87.3171 19.917 87.0569 19.0553C86.8179 18.265 86.9801 17.2645 87.5049 16.5205C88.4565 15.1711 90.1462 14.8684 91.0679 14.8054C93.9738 14.6162 96.086 16.3985 96.1713 16.4742L94.5584 18.2944L94.5626 18.2986C94.5498 18.286 93.1076 17.0375 91.277 17.1552C90.206 17.2267 89.7963 17.6008 89.6726 17.7563C89.5616 17.8992 89.4934 18.0632 89.5062 18.2061C89.5318 18.4836 89.6811 18.7694 91.038 19.0679C91.8701 19.2528 92.3907 19.3621 93.3038 19.6438C94.9637 20.1524 96.4529 21.2159 96.2097 23.1496C95.9366 25.2977 93.6281 26.0964 91.7122 26.0964C91.0082 26.0964 90.1761 25.9955 89.5275 25.7853C87.522 25.1379 86.5789 24.4653 86.4339 24.356L87.9572 22.4518Z" fill="#141E35"/>
</svg>
